<?xml version="1.0" encoding="UTF-8"?>
<svg id="Bubbel" xmlns="http://www.w3.org/2000/svg" viewBox="0 0 360 360">
    <defs>
        <style>
            .cls-1{fill:#1b1464;stroke:#1b1464;stroke-linecap:round;stroke-miterlimit:10;stroke-width:10px;}.cls-2{fill:#d7dcf4;}.cls-3{fill:#ffdb00;}.cls-4{fill:#ffc300;}.cls-5{fill:#fff;}
        </style>
    </defs>
    <path class="cls-2"
          d="M199.25,76.91c.11,9.95.23,19.89.34,29.84l16.4,12.31c.34.18.88.53,1.3,1.16.68,1.01,1.16,2.88.08,3.95-.7.69-1.85.85-2.94.5l-14.11-.17v13.69l28.95.25-.74-61.47-1.06-7.84c-4.15-20.91-19.19-33.44-22.32-36.05-20.05-16.71-54.13-22.06-80.15-5.78-16.53,10.34-29.16,29-30.98,48.7-.38,4.15-.22,7.63,0,10.03v129.03h28.65V75.12c.06-.79.19-1.96.46-3.35,2.3-11.84,12.06-23.22,24.86-28.01,1.4-.52,22.35-7.96,38.24,5.67,10.17,8.72,11.98,20.67,12.37,23.98l.64,3.51h0Z"/>
    <rect class="cls-4" x="65.45" y="156.94" width="198.18" height="167.41"/>
    <rect class="cls-3" x="65.63" y="156.92" width="100.63" height="167.34"/>
    <rect class="cls-5" x="67.61" y="145.85" width="87.22" height="108.44" rx="43.61" ry="43.61"/>
    <path d="M111.22,235.29h0c-13.55,0-24.54-10.99-24.54-24.54v-21.37c0-13.55,10.99-24.54,24.54-24.54h0c13.55,0,24.54,10.99,24.54,24.54v21.37c0,13.55-10.99,24.54-24.54,24.54Z"/>
    <circle class="cls-5" cx="102.42" cy="196.55" r="8.77"/>
    <rect class="cls-5" x="181.49" y="147" width="87.22" height="108.44" rx="43.61" ry="43.61"/>
    <path d="M225.1,237.71h0c-13.55,0-24.54-10.99-24.54-24.54v-21.37c0-13.55,10.99-24.54,24.54-24.54h0c13.55,0,24.54,10.99,24.54,24.54v21.37c0,13.55-10.99,24.54-24.54,24.54Z"/>
    <circle class="cls-5" cx="213.93" cy="198.54" r="7.88"/>
    <path class="cls-1"
          d="M146.2,265.1c-1.67-.05-3.06,1.29-3.04,2.97.04,4.2,1.04,11.7,6.95,16.68,8.54,7.2,22.08,7.32,29.37,1.92,5.89-4.37,7.99-12.23,8.86-16.92.33-1.78-1.01-3.42-2.82-3.48l-39.32-1.16Z"/>
</svg>