<?xml version="1.0" encoding="UTF-8"?>
<svg id="Bubbel" xmlns="http://www.w3.org/2000/svg" viewBox="0 0 360 360">
    <defs>
        <style>
            .cls-1{fill:#d7dcf4;}.cls-2{fill:#ffdb00;}.cls-3{fill:#ffc300;}.cls-4{fill:#fff;}.cls-5{fill:none;stroke:#1b1464;stroke-linecap:round;stroke-miterlimit:10;stroke-width:10px;}
        </style>
    </defs>
    <path class="cls-1 lock-arc"
          d="M212.93,131.16c.11,9.95.23,19.89.34,29.84l16.4,12.31c.34.18.88.53,1.3,1.16.68,1.01,1.16,2.88.08,3.95-.7.69-1.85.85-2.94.5l-14.11-.17v13.69l28.95.25-.74-61.47-1.06-7.84c-4.15-20.91-19.19-33.44-22.32-36.05-20.05-16.71-54.13-22.06-80.15-5.78-16.53,10.34-29.16,29-30.98,48.7-.38,4.15-.22,7.63,0,10.03v129.03h28.65v-139.94c.06-.79.19-1.96.46-3.35,2.3-11.84,12.06-23.22,24.86-28.01,1.4-.52,22.35-7.96,38.24,5.67,10.17,8.72,11.98,20.67,12.37,23.98l.64,3.51Z"/>
    <rect class="cls-3" x="79.13" y="151.23" width="198.18" height="167.41"/>
    <rect class="cls-2" x="79.31" y="151.21" width="100.63" height="167.34"/>
    <rect class="cls-4 eye" x="81.29" y="140.14" width="87.22" height="108.44" rx="43.61" ry="43.61"
          transform="translate(249.8 388.72) rotate(-180)"/>
    <rect x="100.36" y="159.14" width="49.08" height="70.45" rx="24.54" ry="24.54"
          transform="translate(249.8 388.72) rotate(-180)"/>
    <circle class="cls-4" cx="116.1" cy="190.84" r="8.77"/>
    <rect class="cls-4 eye" x="195.17" y="141.3" width="87.22" height="108.44" rx="43.61" ry="43.61"
          transform="translate(477.56 391.03) rotate(-180)"/>
    <rect x="214.24" y="161.55" width="49.08" height="70.45" rx="24.54" ry="24.54"
          transform="translate(477.56 393.55) rotate(-180)"/>
    <circle class="cls-4" cx="227.61" cy="192.83" r="7.88"/>
    <path class="cls-5"
          d="M156.98,259.3c-.14,1.17-1.36,12.85,6.81,19.73,8.54,7.2,22.08,7.32,29.37,1.92,7.84-5.81,8.96-17.8,9.42-20.3"/>
</svg>