<?xml version="1.0" encoding="UTF-8"?>
<svg id="Bubbel" xmlns="http://www.w3.org/2000/svg" viewBox="0 0 360 360">
    <defs>
        <style>
            .cls-1{fill:#d7dcf4;}.cls-2{fill:#ffdb00;}.cls-3{fill:#ffc300;}.cls-4{fill:#fff;}.cls-5{fill:none;stroke:#1b1464;stroke-linecap:round;stroke-miterlimit:10;stroke-width:10px;}
        </style>
    </defs>
    <path class="cls-1"
          d="M198.29,138.93c.11,9.95.23,19.89.34,29.84l16.4,12.31c.34.18.88.53,1.3,1.16.68,1.01,1.16,2.88.08,3.95-.7.69-1.85.85-2.94.5l-14.11-.17v13.69l28.95.25-.74-61.47-1.06-7.84c-4.15-20.91-19.19-33.44-22.32-36.05-20.05-16.71-54.13-22.06-80.15-5.78-16.53,10.34-29.16,29-30.98,48.7-.38,4.15-.22,7.63,0,10.03v129.03h28.65v-139.94c.06-.79.19-1.96.46-3.35,2.3-11.84,12.06-23.22,24.86-28.01,1.4-.52,22.35-7.96,38.24,5.67,10.17,8.72,11.98,20.67,12.37,23.98l.64,3.51h0Z"/>
    <rect class="cls-3" x="64.49" y="159" width="198.18" height="167.41"/>
    <rect class="cls-2" x="64.67" y="158.98" width="100.63" height="167.34"/>
    <rect class="cls-4" x="66.65" y="147.91" width="87.22" height="108.44" rx="43.61" ry="43.61"/>
    <path d="M110.26,237.35h0c-13.55,0-24.54-10.99-24.54-24.54v-21.37c0-13.55,10.99-24.54,24.54-24.54h0c13.55,0,24.54,10.99,24.54,24.54v21.37c0,13.55-10.99,24.54-24.54,24.54Z"/>
    <circle class="cls-4" cx="101.46" cy="198.61" r="8.77"/>
    <rect class="cls-4" x="180.53" y="149.06" width="87.22" height="108.44" rx="43.61" ry="43.61"/>
    <path d="M224.14,239.77h0c-13.55,0-24.54-10.99-24.54-24.54v-21.37c0-13.55,10.99-24.54,24.54-24.54h0c13.55,0,24.54,10.99,24.54,24.54v21.37c0,13.55-10.99,24.54-24.54,24.54Z"/>
    <circle class="cls-4" cx="212.97" cy="200.6" r="7.88"/>
    <path class="cls-5"
          d="M190.81,287.01c.13-1.17-1.65-7.58-9.89-14.38-8.61-7.12-22.15-7.1-29.39-1.63-7.78,5.89-11.69,11.17-12.12,13.67"/>
</svg>