<?xml version="1.0" encoding="UTF-8"?>
<svg id="Bubbel" xmlns="http://www.w3.org/2000/svg" viewBox="0 0 360 360">
    <defs>
        <style>
            .cls-1{fill:#1b1464;stroke:#1b1464;stroke-linecap:round;stroke-miterlimit:10;stroke-width:10px;}.cls-2{fill:#d7dcf4;}.cls-3{fill:#ffdb00;}.cls-4{fill:#ffc300;}.cls-5{fill:#fff;}
        </style>
    </defs>
    <path class="cls-2"
          d="M187.96,78.94c.11,9.95.23,19.89.34,29.84l16.4,12.31c.34.18.88.53,1.3,1.16.68,1.01,1.16,2.88.08,3.95-.7.69-1.85.85-2.94.5l-14.11-.17v13.69l28.95.25-.74-61.47-1.06-7.84c-4.15-20.91-19.19-33.44-22.32-36.05-20.05-16.71-54.13-22.06-80.15-5.78-16.53,10.34-29.16,29-30.98,48.7-.38,4.15-.22,7.63,0,10.03v129.03h28.65V77.15c.06-.79.19-1.96.46-3.35,2.3-11.84,12.06-23.22,24.86-28.01,1.4-.52,22.35-7.96,38.24,5.67,10.17,8.72,11.98,20.67,12.37,23.98l.64,3.51h0Z"/>
    <rect class="cls-4" x="54.16" y="158.97" width="198.18" height="167.41"/>
    <rect class="cls-3" x="54.34" y="158.95" width="100.63" height="167.34"/>
    <rect class="cls-5" x="56.32" y="147.88" width="87.22" height="108.44" rx="43.61" ry="43.61"/>
    <path d="M99.93,237.32h0c-13.55,0-24.54-10.99-24.54-24.54v-21.37c0-13.55,10.99-24.54,24.54-24.54h0c13.55,0,24.54,10.99,24.54,24.54v21.37c0,13.55-10.99,24.54-24.54,24.54Z"/>
    <circle class="cls-5" cx="91.13" cy="198.58" r="8.77"/>
    <rect class="cls-5" x="170.2" y="149.03" width="87.22" height="108.44" rx="43.61" ry="43.61"/>
    <path d="M213.81,239.74h0c-13.55,0-24.54-10.99-24.54-24.54v-21.37c0-13.55,10.99-24.54,24.54-24.54h0c13.55,0,24.54,10.99,24.54,24.54v21.37c0,13.55-10.99,24.54-24.54,24.54Z"/>
    <circle class="cls-5" cx="202.64" cy="200.57" r="7.88"/>
    <ellipse class="cls-1" cx="154.69" cy="281.74" rx="13.06" ry="12.55"/>
</svg>