<?xml version="1.0" encoding="UTF-8"?><svg id="Bubbel" xmlns="http://www.w3.org/2000/svg" width="154.63mm" height="228.02mm" viewBox="0 0 438.33 646.35"><defs><style>.cls-1{fill:#986e52;}.cls-2{fill:#0b0e23;}.cls-3{fill:none;stroke:#42210b;stroke-linecap:round;stroke-miterlimit:10;stroke-width:2px;}.cls-4{fill:#fff;}.cls-5{fill:#e5bd9a;}.cls-6{fill:#c69c6d;}.cls-7{fill:#42210b;}.cls-8{fill:#333;}</style></defs><rect class="cls-1" x="233.38" y="235.29" width="29.23" height="73.25" rx="8.58" ry="8.58" transform="translate(115.24 -71.33) rotate(21.22)"/><path class="cls-5" d="M329.35,213.85c-7.91,32.57-18.01,68-67.84,44.91-40.8-18.92-47.48-39-39.71-71.01,7.77-32.01,38.14-52.11,67.84-44.91s47.48,39,39.71,71.01Z"/><rect class="cls-7" x="143.14" y="417.73" width="48.54" height="139.56" rx="14.24" ry="14.24" transform="translate(187.1 -27.57) rotate(21.14)"/><path class="cls-7" d="M231.16,398.34h22.34c7.23,0,13.1,5.87,13.1,13.1v103.28c0,8.49-6.9,15.39-15.39,15.39h-20.05c-7.23,0-13.1-5.87-13.1-13.1v-105.57c0-7.23,5.87-13.1,13.1-13.1Z" transform="translate(-277.21 398.6) rotate(-55.24)"/><rect class="cls-6" x="37.84" y="539.04" width="30.03" height="23.08" rx="6.77" ry="6.77" transform="translate(-50.42 7.2) rotate(-5.28)"/><rect class="cls-6" x="292.28" y="579.38" width="30.03" height="23.08" rx="6.77" ry="6.77" transform="translate(792.71 134.86) rotate(74.26)"/><rect class="cls-7" x="91.31" y="482.82" width="44.7" height="113.82" rx="13.12" ry="13.12" transform="translate(-404.51 728.73) rotate(-98.15)"/><rect class="cls-7" x="267.34" y="476.62" width="48.54" height="113.82" rx="14.24" ry="14.24" transform="translate(-117.45 83.68) rotate(-13.62)"/><path d="M315.58,600.7c7.61-2.04,14.1-3.26,18.87-4.02,0,0,14.07-1.18,21.79,3.77,3.91,2.51,6.1,5.92,6.1,5.92.99,1.54,1.58,2.97,1.93,4l2.82,7.07-58.93,14.98c-.69-1.45-1.63-3.51-2.65-6.02l-8.44-21.12,18.5-4.57Z"/><rect class="cls-8" x="307.45" y="623.18" width="60.78" height="4.95" transform="translate(-157.04 115.09) rotate(-15.74)"/><path d="M43.85,551.87c.25,7.87-.04,14.47-.39,19.29,0,0-2.06,13.97-8.64,20.35-3.34,3.24-7.15,4.59-7.15,4.59-1.72.61-3.25.86-4.33.97l-7.52,1.14-1.14-60.79c1.57-.34,3.79-.78,6.47-1.2l22.49-3.41.23,19.06Z"/><rect class="cls-8" x="-15.92" y="565.37" width="60.78" height="4.95" transform="translate(581.1 528.09) rotate(87.45)"/><rect class="cls-2" x="297.6" y="268.74" width="34.18" height="111.19" rx="10.03" ry="10.03" transform="translate(-133.9 379.05) rotate(-52.82)"/><rect class="cls-2" x="147.59" y="239.86" width="34.78" height="108.7" rx="10.21" ry="10.21" transform="translate(380.73 34.92) rotate(69.04)"/><rect class="cls-7" x="165.13" y="319.99" width="98.7" height="145.95" rx="22.68" ry="22.68" transform="translate(107.6 -41.78) rotate(14.81)"/><path class="cls-2" d="M194.18,269.17h71.12c15.64,0,28.35,12.7,28.35,28.35v104.58c0,7.82-6.35,14.17-14.17,14.17h-99.47c-7.82,0-14.17-6.35-14.17-14.17v-104.58c0-15.64,12.7-28.35,28.35-28.35Z" transform="translate(95.26 -47.35) rotate(14.81)"/><path class="cls-3" d="M275.07,242.22c.6.75,3.17,3.84,8.05,5.44,3.7,1.21,6.71.91,7.85.74"/><path class="cls-7" d="M257.11,142.37c.16-1.1,1.37-9.95-3.56-13.54-4.7-3.43-11.92.16-18.43,3.39-5.82,2.89-10.51,5.22-12.08,10.03-1.3,3.98.49,6.69-1.93,11.49-.58,1.15-1.74,3.45-4.05,5.03-5.86,4.01-11.96-1.56-16.14,1.51-4.42,3.24-4.2,14.29.03,21.39,2.46,4.12,5.3,5.29,5.03,8.27-.35,3.79-5.14,3.81-8.4,8.91-3.32,5.2-3.36,13.06-.39,18.31,2.46,4.35,5.4,4.1,6.91,8.73,1.17,3.58-.23,4.84.62,9.6.23,1.31,1.08,5.81,4.28,9.85.77.97,6.9,8.47,15.62,7.47.65-.07,7.75-.98,9.84-5.75,1.11-2.53-.46-3.25-.95-11.57-.15-2.6,0-2.63-.23-9.6-.08-2.45-.12-4.09-.23-5.91-.24-4.25-.64-8.28-1.14-12.08-1,.2-2.45.34-4.1,0-3.84-.79-8.48-4.15-8.66-9.05-.14-3.78,2.37-8.53,6.38-8.91,3.3-.32,5.79,2.5,6.15,2.92l4.56,3c.44-2.73,1.28-6.48,2.96-10.7.73-1.84,3.7-8.95,10.71-16.46,3.84-4.11,8.92-9.54,12.46-8.21,2.08.78,1.61,3.13,3.74,5.47,4.21,4.64,11.03.89,20.05,2.51,12.43,2.22,12.19,11.6,21.96,11.4,7.58-.16,10.61-5.87,18.82-4.1,3.42.73,5,2.18,7.78,1.37,4.08-1.19,6.39-5.95,7.07-9.35.8-3.97-.09-8.87-3.19-12.08-1.81-1.88-2.92-1.67-13.79-5.24-8.05-2.65-9.76-3.53-10.88-5.47-1.31-2.26-.67-3.94-2.64-7.07-1.42-2.25-3.12-3.54-4.18-4.33-8.98-6.69-22.71-4.5-25.18-4.1-1.87.3-3.36.54-5.12,1.06-.45.13-1.12.35-1.94.66l-17.75,11.16Z"/><rect class="cls-8" x="240.45" y="187.06" width="91.85" height="35.24" rx="12" ry="12"/><rect class="cls-4" x="259.99" y="189.4" width="25.16" height="31.28" rx="12" ry="12"/><rect class="cls-4" x="302.03" y="189.4" width="25.16" height="31.28" rx="12" ry="12"/><rect x="265.49" y="195.24" width="14.16" height="20.32" rx="7.08" ry="7.08"/><rect x="307.53" y="194.88" width="14.16" height="20.32" rx="7.08" ry="7.08"/><ellipse class="cls-8" cx="274.52" cy="194.41" rx="6" ry="17.54" transform="translate(50.94 445.76) rotate(-83.65)"/><ellipse class="cls-8" cx="311.62" cy="194.41" rx="17.42" ry="5.47" transform="translate(-18.92 34.27) rotate(-6.11)"/><path class="cls-6" d="M312.58,225.33c.28,4.42-20.67,12.3-25.18,6.91-2.16-2.58-.74-8.45,2.57-11.08,3.09-2.46,7.2-1.59,12.25-.51,3.22.68,10.21,2.17,10.36,4.68Z"/><circle class="cls-4" cx="317.91" cy="203.27" r="1.77"/><circle class="cls-4" cx="276.29" cy="203.77" r="1.77"/><ellipse class="cls-5" cx="115.54" cy="407.98" rx="16.9" ry="19.93"/><rect class="cls-5" x="118.23" y="393.96" width="15.45" height="29.36" rx="5.91" ry="5.91" transform="translate(-232.2 175.02) rotate(-39.75)"/><path class="cls-2" d="M114.57,294.3h13.22c5.18,0,9.39,4.21,9.39,9.39v91.53c0,3.06-2.48,5.54-5.54,5.54h-20.93c-3.06,0-5.54-2.48-5.54-5.54v-91.53c0-5.18,4.21-9.39,9.39-9.39Z" transform="translate(36.46 -10.64) rotate(5.92)"/><ellipse class="cls-5" cx="418.55" cy="280.44" rx="19.93" ry="16.9" transform="translate(-54.27 106.46) rotate(-13.62)"/><rect class="cls-5" x="409.01" y="255.48" width="15.45" height="29.36" rx="5.91" ry="5.91" transform="translate(590.03 735.6) rotate(-143.37)"/><path class="cls-2" d="M366.77,271.33h13.22c5.18,0,9.39,4.21,9.39,9.39v91.53c0,3.06-2.48,5.54-5.54,5.54h-20.93c-3.06,0-5.54-2.48-5.54-5.54v-91.53c0-5.18,4.21-9.39,9.39-9.39Z" transform="translate(407.9 818.09) rotate(-135)"/></svg>