<?xml version="1.0" encoding="UTF-8"?><svg id="Bubbel" xmlns="http://www.w3.org/2000/svg" width="162.53mm" height="228.02mm" viewBox="0 0 460.72 646.35"><defs><style>.cls-1{fill:#c67c66;}.cls-2{fill:#80d1e4;}.cls-3{stroke:#42210b;}.cls-3,.cls-4{fill:none;stroke-linecap:round;stroke-miterlimit:10;stroke-width:3px;}.cls-5{fill:#e18e70;}.cls-6{fill:#0b0e23;}.cls-7{fill:#9c9d9f;}.cls-8{fill:#b93c13;}.cls-9{fill:#493f48;}.cls-10{fill:#c7c5c6;}.cls-11{fill:#965345;}.cls-12{fill:#192044;}.cls-13{fill:#fff;}.cls-14{fill:#352e35;}.cls-15{fill:#c1272d;}.cls-16{fill:#333;}.cls-4{stroke:#b93c13;}</style></defs><path class="cls-8" d="M261.68,57.72c-18.32-1.03-27.6,1.15-34.36,3.66-7.53,2.79-12.73,6.52-15.83,8.33-9.5,5.53-19.15,9.68-21.3,21.58-3.6,19.88,6.66,24.67,1.05,35.53-7.03,13.61-20.17,12.51-27.93,26.55-6.84,12.39,3.71,30.68,6.06,33.97,11.34,15.89,10.64,8.99,17.76,22.47,6.59,12.47,4.35,25.52,2.74,34.91-6.82,39.71-35.87,45.79-41.89,84.24-1.11,7.09-4.21,26.87,6.33,35.62,3.77,3.13,9.31,4.87,40.16,0,36.36-5.74,40.32-10.02,54.46-7.59,1.16.2.98.2,34.57,13.37,19.56,7.67,29.5,11.45,37.2,8.61,7.14-2.64,11.45-8.49,17.81-17.12,9.95-13.51,8.12-19.2,15.07-23.29,8.77-5.16,14.58,2.19,28.77,0,13.49-2.08,29.36-11.97,32.19-25.44,2.65-12.59-7-24.1-13.7-32.1-19.95-23.81-41.89-23.48-42.46-34.93-.51-10.32,17.23-12.17,30.14-36.28,2.28-4.25,6.24-11.83,7.53-22.47.55-4.5,2.99-24.6-8.9-37.93-5.98-6.7-10.52-6.03-18.24-9.74,0,0-3.14-1.42-8.47-5.25-7.39-5.31-19.86-30.11-19.86-30.11-3.93-9.27-13.56-27.85-33.78-38.37-12.22-6.36-23.17-6.97-45.09-8.2Z"/><rect class="cls-5" x="280.27" y="387.63" width="33.3" height="139.56" rx="14.24" ry="14.24" transform="translate(593.84 914.81) rotate(180)"/><path class="cls-5" d="M240.02,522.17l12.19,5.43c4.38,1.95,9.41-2.1,11.18-9.01l25.88-101.15c1.77-6.9-.37-14.15-4.75-16.1l-13.58-6.05c-4.38-1.95-9.41,2.1-11.18,9.01l-25.32,98.96c-2.08,8.11.44,16.62,5.58,18.91Z"/><path class="cls-15" d="M370.13,459.97c6.4-1.73,25.9-13.72,19.43-36.58-4.96-17.56-24.13-25.72-39.35-45.45-9.3-12.06-6.74-11.83-24.42-47.78-3.68-7.48-7.06-14.97-15.4-14.88l-61.93.67c-6.2.07-11.73,3.9-14.02,9.66-11.15,28.06-23.55,49.25-33.73,64.36-14.34,21.29-28.65,37.04-23.51,51.72,3.15,9.01,12.45,14.25,20.92,17.38,1.66.61,3.41.91,5.18.91h166.83Z"/><rect class="cls-6" x="199.46" y="216.62" width="34.18" height="100.5" rx="10.03" ry="10.03" transform="translate(163.28 606.39) rotate(-132.03)"/><ellipse class="cls-5" cx="115.81" cy="251.15" rx="16.9" ry="19.93" transform="translate(-155.55 304.56) rotate(-76.38)"/><rect class="cls-5" x="109.89" y="226.19" width="15.45" height="29.36" rx="5.91" ry="5.91" transform="translate(-120.47 117.73) rotate(-36.63)"/><path class="cls-6" d="M154.79,224.29h20.93c3.06,0,5.54,2.48,5.54,5.54v91.53c0,5.18-4.21,9.39-9.39,9.39h-13.22c-5.18,0-9.39-4.21-9.39-9.39v-91.53c0-3.06,2.48-5.54,5.54-5.54Z" transform="translate(-157.25 295.18) rotate(-62.36)"/><path class="cls-5" d="M256.12,494.3l-14.69.33c-4.68.11-8.46,6.09-8.39,13.31l1.02,107.24c.07,7.21,3.96,13.03,8.64,12.93l14.69-.33c4.68-.11,8.46-6.09,8.39-13.31l-1.02-107.24c-.07-7.21-3.96-13.03-8.64-12.93Z"/><rect class="cls-1" x="255.56" y="187.81" width="29.23" height="73.25" rx="8.58" ry="8.58" transform="translate(563.59 417.5) rotate(173.63)"/><path class="cls-6" d="M240.34,221.12h79.75c7.82,0,14.17,6.35,14.17,14.17v93.33c0,15.64-12.7,28.35-28.35,28.35h-51.41c-15.64,0-28.35-12.7-28.35-28.35v-93.33c0-7.82,6.35-14.17,14.17-14.17Z" transform="translate(560.44 578.08) rotate(180)"/><rect class="cls-12" x="266.11" y="220.27" width="34.78" height="108.7" rx="10.21" ry="10.21" transform="translate(258.33 668.51) rotate(-130.43)"/><path class="cls-5" d="M206.41,147.46c-.71,33.51-.01,70.35,54.07,60.79,44.29-7.83,55.88-25.53,56.58-58.46.69-32.93-23.51-60.15-54.07-60.79s-55.88,25.53-56.58,58.46Z"/><rect class="cls-13" x="209.63" y="132.47" width="25.16" height="31.28" rx="12" ry="12" transform="translate(444.43 296.22) rotate(-180)"/><rect x="215.13" y="137.95" width="14.16" height="20.32" rx="7.08" ry="7.08" transform="translate(444.43 296.22) rotate(-180)"/><circle class="cls-13" cx="218.92" cy="146.34" r="1.77"/><rect class="cls-13" x="251.67" y="132.47" width="25.16" height="31.28" rx="12" ry="12" transform="translate(528.5 296.22) rotate(-180)"/><rect x="257.17" y="138.31" width="14.16" height="20.32" rx="7.08" ry="7.08" transform="translate(528.5 296.95) rotate(-180)"/><circle class="cls-13" cx="260.53" cy="146.84" r="1.77"/><path class="cls-4" d="M211.49,130.14c1.71-1.1,5.52-3.22,10.73-3.33,8.04-.18,13.44,4.53,14.68,5.66"/><path class="cls-4" d="M251.55,131.31c1.71-1.1,5.52-3.22,10.73-3.33,8.04-.18,13.44,4.53,14.68,5.66"/><path class="cls-11" d="M239.47,156.18c-3.71-2.56-16.41,2.35-13.07,7.31,1.6,2.38,7.03,4.98,10.23,4.98,2.99,0,3.4-2.3,3.91-5.13.33-1.8,1.03-5.7-1.07-7.16Z"/><path class="cls-3" d="M247.69,183.25c7.45,5.82,13.9,5.01,15.76,0,.36-.96.99-3.29.23-7.8"/><path class="cls-5" d="M304.62,493.27l-15.53.33c-4.95.11-8.94,6.09-8.87,13.31l1.07,107.24c.07,7.21,4.18,13.03,9.13,12.93l15.53-.33c4.95-.11,8.94-6.09,8.87-13.31l-1.07-107.24c-.07-7.21-4.18-13.03-9.13-12.93Z"/><path class="cls-8" d="M191.81,139.27c2.63.98,8.34-4.41,19.77-15.2,11.57-10.93,18.55-4.17,25.31-6.16,4.67-1.37,5.11-10.11,15.68-10.96,5.78-.46,15.64,12.95,18.76,12.75,7.87-.49,12.27-12.05,19.44-1.86,6.5,9.25,4.66,20.46,3.73,26.14-.8,4.87-2.26,8.74-3.42,11.31l4.39-1.77c2.19-2.74,5.51-4.15,8.68-3.63,4.55.74,7.39,5.22,7.47,9.34.09,4.51-3.17,7.86-6.22,9.34-3.86,1.86-8.56,1.29-12.14-1.47-.4,1.53-.73,3.24-.93,5.12-.62,5.79,2.26,8.7,1.24,13.78-.33,1.68-.63,1.41-1.24,3.56-1.66,5.77-1.45,14.82,2.8,17.2,4.17,2.33,10.88-2.54,12.84-3.96,10.15-7.36,13.2-19.06,14.88-25.88,1.08-4.36,3.95-17.83,0-34.81-4.26-18.29-13.98-30.09-19.32-36.43-5.6-6.65-12.12-14.37-23.34-20.2-21.07-10.93-42.11-6.52-52.4-4.36-12.46,2.62-35.82,13.75-43.73,22.67-13.8,15.59,1.31,33.07,7.75,35.47Z"/><path d="M251.2,612.38c-7.87.36-14.43,1.16-19.2,1.87,0,0-13.77,3.12-19.63,10.18-2.97,3.58-4.03,7.49-4.03,7.49-.48,1.77-.61,3.3-.63,4.4l-.55,7.59,60.7-3.53c.22-1.59.49-3.84.7-6.54l1.67-22.68-19.02,1.23Z"/><rect class="cls-16" x="207.14" y="640.43" width="60.78" height="4.95" transform="translate(495.73 1277.78) rotate(178.15)"/><path d="M300.38,611.73c-7.87.36-14.43,1.16-19.2,1.87,0,0-13.77,3.12-19.63,10.18-2.97,3.58-4.03,7.49-4.03,7.49-.48,1.77-.61,3.3-.63,4.4l-.55,7.59,60.7-3.53c.22-1.59.49-3.84.7-6.54l1.67-22.68-19.02,1.23Z"/><rect class="cls-16" x="256.32" y="639.78" width="60.78" height="4.95" transform="translate(594.04 1274.9) rotate(178.15)"/><rect class="cls-14" x="74.65" y="228.79" width="95.36" height="63.58" rx="12" ry="12"/><ellipse class="cls-14" cx="133.57" cy="231.09" rx="19.19" ry="13.38"/><circle class="cls-10" cx="133.57" cy="260.58" r="25.59"/><circle class="cls-7" cx="133.57" cy="260.58" r="22.1"/><circle class="cls-2" cx="133.57" cy="260.58" r="15.68"/><circle class="cls-13" cx="129.58" cy="256.68" r="3.9"/><circle class="cls-13" cx="140.93" cy="265.59" r="2.51"/><rect class="cls-9" x="94.1" y="235.54" width="4.18" height="50.09" rx="2.09" ry="2.09"/><rect class="cls-9" x="78.58" y="237.02" width="12.37" height="9.74" rx="4.87" ry="4.87"/><ellipse class="cls-5" cx="140.7" cy="307.43" rx="16.9" ry="19.93" transform="translate(-176.77 423.72) rotate(-85.53)"/><rect class="cls-5" x="133.13" y="282.31" width="15.45" height="29.36" rx="5.91" ry="5.91" transform="translate(-170.21 190.77) rotate(-45.77)"/><path class="cls-12" d="M193.91,252.38h20.93c3.06,0,5.54,2.48,5.54,5.54v91.53c0,5.18-4.21,9.39-9.39,9.39h-13.22c-5.18,0-9.39-4.21-9.39-9.39v-91.53c0-3.06,2.48-5.54,5.54-5.54Z" transform="translate(-95.99 517.62) rotate(-91.44)"/></svg>