<?xml version="1.0" encoding="UTF-8"?><svg id="Bubbel" xmlns="http://www.w3.org/2000/svg" width="116.55mm" height="127.65mm" viewBox="0 0 330.38 361.86"><defs><style>.cls-1{fill:#65c7cf;}.cls-2{fill:none;stroke-width:21px;}.cls-2,.cls-3{stroke:#828ac4;stroke-miterlimit:10;}.cls-4{fill:#fff;}.cls-3{fill:#828ac4;stroke-width:10px;}.cls-5{fill:#dae1e5;}</style></defs><path class="cls-1" d="M236.22,157.78c0,50.84-56.4,103.78-75.33,120.13-3.62,2.73-8.61,2.73-12.24,0-18.94-16.35-75.33-69.3-75.33-120.13,0-44.98,36.47-81.45,81.45-81.45s81.45,36.47,81.45,81.45"/><circle class="cls-5" cx="154.44" cy="156.79" r="59.71"/><circle class="cls-2" cx="156.87" cy="177.16" r="133.29"/><rect class="cls-3" x="145.63" y="22.52" width="13.46" height="38.71" rx="5.07" ry="5.07"/><rect class="cls-3" x="150.14" y="291.09" width="13.46" height="38.71" rx="5.07" ry="5.07"/><rect class="cls-3" x="282.72" y="154.96" width="13.46" height="38.71" rx="5.07" ry="5.07" transform="translate(463.76 -115.14) rotate(90)"/><rect class="cls-3" x="18.97" y="154.96" width="13.46" height="38.71" rx="5.07" ry="5.07" transform="translate(200.01 148.61) rotate(90)"/><rect class="cls-4" x="107.53" y="129.98" width="42.78" height="53.19" rx="21.39" ry="21.39" transform="translate(257.84 313.14) rotate(-180)"/><rect x="116.88" y="139.3" width="24.07" height="34.55" rx="12.04" ry="12.04" transform="translate(257.84 313.14) rotate(-180)"/><circle class="cls-4" cx="124.61" cy="154.85" r="4.3"/><rect class="cls-4" x="160.37" y="129.87" width="42.78" height="53.19" rx="21.39" ry="21.39" transform="translate(363.52 312.92) rotate(-180)"/><rect x="169.73" y="139.8" width="24.07" height="34.55" rx="12.04" ry="12.04" transform="translate(363.52 314.16) rotate(-180)"/><circle class="cls-4" cx="176.28" cy="155.14" r="3.86"/></svg>