<?xml version="1.0" encoding="UTF-8"?><svg id="Bubbel" xmlns="http://www.w3.org/2000/svg" width="123.75mm" height="127.65mm" viewBox="0 0 350.77 361.86"><defs><style>.cls-1{stroke-width:3px;}.cls-1,.cls-2{fill:#1a1a1a;stroke:#1a1a1a;}.cls-1,.cls-2,.cls-3{stroke-miterlimit:10;}.cls-1,.cls-4{stroke-linecap:round;}.cls-5{fill:#fff;}.cls-4{stroke-linejoin:round;stroke-width:5px;}.cls-4,.cls-3{fill:#603813;stroke:#603813;}.cls-3{stroke-width:8px;}.cls-6{fill:#ec1c24;}</style></defs><circle class="cls-6" cx="165.84" cy="175.53" r="144.57"/><circle class="cls-5" cx="164.74" cy="174.43" r="108.86"/><circle class="cls-6" cx="165.89" cy="174.02" r="76.7"/><circle class="cls-5" cx="165.22" cy="173.42" r="41.59"/><path class="cls-2" d="M214.48,240.13l-4.64,2.81c-4.21,2.55-10,1.57-12.86-2.18l-29.48-38.57c-2.86-3.75-1.76-8.9,2.45-11.45l4.64-2.81c4.21-2.55,10-1.57,12.86,2.18l29.48,38.57c2.86,3.75,1.76,8.9-2.45,11.45Z"/><path class="cls-2" d="M158.51,208.8l-4.77-.47c-4.33-.43-7.47-3.93-6.99-7.78l3.98-31.72c.48-3.85,4.42-6.65,8.75-6.22l4.77.47c4.33.43,7.47,3.93,6.99,7.78l-3.98,31.72c-.48,3.85-4.42,6.65-8.75,6.22Z"/><path class="cls-2" d="M131.4,182.59h47.95c7.82,0,14.17,6.35,14.17,14.17v71.14h-76.3v-71.14c0-7.82,6.35-14.17,14.17-14.17Z"/><path class="cls-2" d="M180.64,237.42l-3.7,3.86c-3.36,3.51-9.33,3.93-13.28.94l-44.06-33.4c-3.94-2.99-4.42-8.31-1.06-11.82l3.7-3.86c3.36-3.51,9.33-3.93,13.28-.94l44.06,33.4c3.94,2.99,4.42,8.31,1.06,11.82Z"/><path class="cls-2" d="M204,137.36c.5,21.05,0,44.18-38.16,38.18-31.26-4.92-39.44-16.03-39.93-36.72-.49-20.68,16.6-37.77,38.16-38.18,21.56-.4,39.44,16.03,39.93,36.72Z"/><rect class="cls-2" x="183.97" y="127.94" width="17.76" height="19.65" rx="6.79" ry="6.79"/><rect class="cls-2" x="187.85" y="131.38" width="9.99" height="12.76" rx="3.82" ry="3.82"/><ellipse class="cls-2" cx="195.17" cy="136.65" rx="1.25" ry="1.11"/><rect class="cls-2" x="154.29" y="127.94" width="17.76" height="19.65" rx="6.79" ry="6.79"/><rect class="cls-2" x="158.18" y="131.61" width="9.99" height="12.76" rx="3.82" ry="3.82"/><ellipse class="cls-2" cx="165.8" cy="136.96" rx="1.25" ry="1.11"/><path class="cls-1" d="M200.42,126.48c-1.21-.69-3.9-2.02-7.57-2.09-5.67-.11-9.49,2.84-10.36,3.56"/><path class="cls-1" d="M172.14,127.22c-1.21-.69-3.9-2.02-7.57-2.09-5.67-.11-9.49,2.84-10.36,3.56"/><path class="cls-2" d="M180.66,142.83c2.62-1.61,11.59,1.47,9.23,4.59-1.13,1.49-4.96,3.13-7.22,3.12-2.11,0-2.4-1.45-2.76-3.22-.23-1.13-.73-3.58.76-4.49Z"/><path class="cls-1" d="M174.87,159.83c-5.26,3.66-9.81,3.15-11.12,0-.25-.6-.7-2.06-.17-4.9"/><path class="cls-2" d="M218.48,132c-1.86.62-34.64-17.08-39.41-18.33-3.29-.86-3.6-6.35-11.07-6.88-4.08-.29-11.04,8.13-13.24,8.01-5.55-.31-8.66-7.57-13.72-1.17-4.59,5.81-3.29,12.85-2.64,16.42.56,3.06,1.6,5.49,2.42,7.1l-3.1-1.11c-1.54-1.72-3.89-2.6-6.12-2.28-3.21.47-5.22,3.28-5.27,5.86-.06,2.83,2.24,4.94,4.39,5.86,2.72,1.17,6.04.81,8.57-.92.28.96.52,2.03.66,3.21.43,3.64-1.59,5.46-.88,8.65.24,1.05.44.88.88,2.24,1.17,3.63-2.04,7.74-1.98,10.8.42,19.05-32.02,26.4-33.41,25.5-7.16-4.62,15.03-39.96,13.84-44.24-.76-2.74-2.79-11.2,0-21.86,3-11.49,9.86-18.9,13.63-22.88,3.96-4.18,8.55-9.03,16.47-12.68,14.87-6.87,29.72-4.09,36.98-2.74,8.8,1.64,25.28,8.64,30.86,14.24,9.74,9.79,6.67,25.68,2.12,27.19Z"/><line class="cls-3" x1="238.35" y1="230.7" x2="326.31" y2="199.24"/><path class="cls-4" d="M318.09,192.32l-5.82,12.3,12.3,5.82,12.69-4.54-12.3-5.82,5.82-12.3-12.69,4.54"/><path class="cls-4" d="M244.14,217.57l-6.54,13.83,13.83,6.54-7.29-20.37Z"/><line class="cls-3" x1="98.94" y1="138.97" x2="31.72" y2="74.09"/><path class="cls-4" d="M29.17,84.53l13.61-.24-.24-13.61-9.69-9.36.24,13.61-13.61.24,9.69,9.36"/><path class="cls-4" d="M84.6,139.6l15.3-.27-.27-15.3-15.03,15.57Z"/></svg>