<?xml version="1.0" encoding="UTF-8"?>
<svg id="Bubbel" xmlns="http://www.w3.org/2000/svg" version="1.1" viewBox="0 0 506.6 327.9">
  <!-- Generator: Adobe Illustrator 30.0.0, SVG Export Plug-In . SVG Version: 2.1.1 Build 123)  -->
  <defs>
    <style>
      .st0, .st1 {
        fill: #fff;
      }

      .st0, .st2, .st3, .st4 {
        stroke-miterlimit: 10;
      }

      .st0, .st4 {
        stroke: #fbb03b;
      }

      .st5 {
        fill: #9c00bf;
      }

      .st2 {
        stroke: #abbcc9;
      }

      .st2, .st3 {
        fill: none;
        stroke-width: 8px;
      }

      .st6 {
        fill: #bb0ce5;
      }

      .st7 {
        fill: #fbb03b;
      }

      .st3 {
        stroke: #e7f2f2;
      }

      .st4 {
        fill: #fcc070;
      }
    </style>
  </defs>
  <g>
    <path class="st7" d="M0,283.4l76.4-142.7c-1.3-1.8-3.1-4.5-5-7.9-2.6-4.7-21.4-40-3.2-75.5,13.4-26.2,41.7-42.2,71-41.2,25.8.9,50.9,14.9,64.1,38.5,2.3,4.1,14.3,26.4,7.3,53.6-8.1,31.8-36.7,53.5-64.1,56.8-7.5.9-13.9.3-18.3-.5l2.3,14.2-37.1,27.5,5.5,35.3-39.4,27.9,3.2,40.8-44.4,17.9L0,283.4Z"/>
    <rect class="st4" x="43.3" y="161.6" width="11.4" height="148.8" rx="5.7" ry="5.7" transform="translate(124.6 7.1) rotate(30)"/>
    <circle class="st4" cx="137.5" cy="90.3" r="66.3"/>
    <circle class="st0" cx="151.8" cy="66.4" r="19.2"/>
  </g>
  <polygon class="st5" points="223.3 87.1 237.6 29.9 302.1 0 506.6 64 488.4 200.9 274.2 157.9 223.3 87.1"/>
  <polygon class="st6" points="236.9 88.4 249.9 36.8 308.1 9.7 492.9 67.5 476.5 191.2 283 152.3 236.9 88.4"/>
  <circle class="st1" cx="276.4" cy="71.1" r="14.5"/>
  <path class="st3" d="M146.3,84.8c1.3-8,31.4-27,64-31.6,27.9-3.9,59.8,1.8,76.1,26.8"/>
  <path class="st2" d="M209,112.5c1.6.6,10.2,3.8,16,4.2,5.3.4,14-2.2,16.9-4.5"/>
</svg>