<?xml version="1.0" encoding="UTF-8"?><svg id="Bubbel" xmlns="http://www.w3.org/2000/svg" width="107.62mm" height="127.65mm" viewBox="0 0 305.06 361.86"><defs><style>.cls-1{fill:#fbb03b;}.cls-2{fill:none;stroke:#fbb03b;stroke-miterlimit:10;stroke-width:8px;}.cls-3{fill:#7c453c;}</style></defs><path class="cls-3" d="M40.87,18.1h195.27c21.76,0,39.42,17.67,39.42,39.42v239.32c0,21.76-17.67,39.42-39.42,39.42H40.87c-1.56,0-2.83-1.27-2.83-2.83V20.93c0-1.56,1.27-2.83,2.83-2.83Z" transform="translate(-42.18 49.17) rotate(-15.74)"/><circle class="cls-2" cx="134.39" cy="112.39" r="46.43" transform="translate(-5.88 217.36) rotate(-76.72)"/><path class="cls-2" d="M104.96,77.17c-2.02,7.19-5.84,24.45,0,45.1,5.42,19.18,16.35,31.32,21.68,36.55"/><path class="cls-2" d="M146.65,68.3c4.49,5.97,14.3,20.67,16.34,42.04,1.9,19.84-3.89,35.11-6.96,41.92"/><path class="cls-2" d="M123.43,68.3c6.11,29.85,12.21,59.69,18.32,89.54"/><path class="cls-2" d="M98.65,140.69c7.23,1.88,24.56,5.34,45.09-.92,19.07-5.81,30.97-16.98,36.1-22.42"/><path class="cls-2" d="M88.93,99.19c5.88-4.61,20.37-14.72,41.69-17.2,19.8-2.3,35.18,3.17,42.06,6.1"/><path class="cls-2" d="M89.41,122.4c29.71-6.72,59.43-13.43,89.14-20.15"/><rect class="cls-1" x="86.3" y="203.96" width="172.77" height="17.95" rx="8.97" ry="8.97" transform="translate(-51.28 54.82) rotate(-15.74)"/><rect class="cls-1" x="104.25" y="267.65" width="172.77" height="17.95" rx="8.97" ry="8.97" transform="translate(-67.89 62.08) rotate(-15.74)"/><rect class="cls-1" x="94.74" y="233.92" width="172.77" height="17.95" rx="8.97" ry="8.97" transform="translate(-59.09 58.24) rotate(-15.74)"/></svg>